<svg version="1.1" width="498" height="370" viewBox="-1 -1 498 370" xmlns="http://www.w3.org/2000/svg" xmlns:xlink="http://www.w3.org/1999/xlink">
  <!-- Exported by Scratch - http://scratch.mit.edu/ -->
  <path id="ID0.044117051642388105" fill="#FFF" stroke-linecap="round" scratch-type="backdrop-fill" d="M 0 0 L 480 0 L 480 360 L 0 360 L 0 0 Z "/>
  <path id="ID0.06877430155873299" fill="none" stroke="#FF0000" stroke-width="8" d="M 0 0 L 480 0 L 480 360 L 0 360 L 0 0 Z "/>
  <path id="ID0.8378077875822783" fill="none" stroke="#FF0000" stroke-width="8" stroke-linecap="round" d="M -5 275 L 144 275 L 146 170 L 343 169 " transform="matrix(1, 0, 0, 1, -1, 1)"/>
  <path id="ID0.543653485365212" fill="none" stroke="#FF0000" stroke-width="8" stroke-linecap="round" d="M 286 171 L 287 271 "/>
  <path id="ID0.44106330582872033" fill="none" stroke="#FF0000" stroke-width="8" stroke-linecap="round" d="M 485 224 L 414 224 L 365 225 L 366 266 " transform="matrix(1, 0, 0, 1, -3, 13)"/>
  <path id="ID0.09605234069749713" fill="none" stroke="#FF0000" stroke-width="8" stroke-linecap="round" d="M 67 161 L 67 74 L 394 74 L 394 111 L 473 110 " transform="matrix(1, 0, 0, 1, 1, 0)"/>
  <path id="ID0.5844976431690156" fill="none" stroke="#FF0000" stroke-width="8" stroke-linecap="round" d="M 428 267 L 378 354 "/>
</svg>